<?xml version="1.0" standalone="no"?>
<!DOCTYPE svg PUBLIC "-//W3C//DTD SVG 20010904//EN"
 "http://www.w3.org/TR/2001/REC-SVG-20010904/DTD/svg10.dtd">
<svg version="1.0" xmlns="http://www.w3.org/2000/svg"
 width="853.000000pt" height="228.000000pt" viewBox="0 0 853.000000 228.000000"
 preserveAspectRatio="xMidYMid meet">

<g transform="translate(0.000000,228.000000) scale(0.100000,-0.100000)"
fill="#000000" stroke="none">
<path d="M333 2248 c-93 -15 -168 -72 -216 -162 l-22 -41 -3 -918 c-2 -879 -2
-920 16 -961 45 -101 132 -160 237 -159 37 0 75 7 96 18 31 15 593 561 594
577 0 9 -257 238 -268 238 -6 0 -72 -62 -148 -137 l-137 -138 -6 95 c-3 52 -4
351 -1 665 l5 570 483 0 482 0 76 -28 c95 -35 180 -101 236 -185 78 -116 103
-264 64 -389 -42 -139 -129 -235 -276 -305 l-70 -33 -252 -3 c-283 -4 -273 -1
-227 -75 48 -76 94 -126 173 -186 89 -68 111 -93 364 -411 103 -129 195 -245
206 -258 19 -22 23 -22 260 -22 133 0 241 4 241 8 0 4 -115 151 -256 327 -218
271 -254 320 -241 329 9 6 44 27 78 46 78 44 208 165 261 242 51 77 103 186
125 268 14 49 18 100 17 205 0 124 -3 149 -27 220 -77 230 -232 407 -450 515
-180 89 -180 89 -818 92 -305 2 -574 0 -596 -4z"/>
<path d="M900 1730 c-103 -13 -182 -69 -224 -159 -20 -43 -21 -65 -24 -328 -2
-156 -1 -283 2 -283 3 0 50 32 106 71 55 39 113 74 130 79 17 5 144 9 283 10
266 1 297 5 362 49 146 99 177 302 68 445 -57 73 -122 105 -235 116 -107 11
-387 11 -468 0z m58 -256 c41 -29 19 -96 -31 -96 -38 0 -57 19 -57 59 0 26 5
36 23 43 32 13 40 12 65 -6z m240 -6 c28 -23 7 -80 -34 -92 -55 -16 -94 83
-41 104 23 9 54 4 75 -12z m220 6 c44 -30 21 -94 -33 -94 -44 0 -71 34 -56 73
15 39 51 48 89 21z"/>
<path d="M2855 1514 c-179 -28 -325 -131 -403 -284 -46 -91 -62 -158 -69 -285
-11 -209 43 -372 161 -491 103 -103 239 -154 410 -154 233 1 404 88 485 248
49 97 48 98 -71 111 -57 7 -112 14 -124 16 -17 4 -28 -6 -51 -44 -24 -37 -44
-55 -89 -77 -51 -25 -71 -29 -144 -29 -100 0 -153 20 -212 80 -40 40 -75 119
-85 191 l-6 44 418 0 418 0 -6 118 c-11 195 -54 309 -157 413 -92 93 -201 137
-355 143 -49 3 -103 2 -120 0z m213 -247 c61 -30 106 -86 126 -156 9 -31 16
-63 16 -69 0 -9 -69 -12 -270 -12 -306 0 -285 -7 -253 84 33 90 106 154 208
180 38 9 129 -5 173 -27z"/>
<path d="M4115 1509 c-223 -37 -382 -185 -442 -409 -22 -82 -24 -300 -4 -380
52 -210 204 -363 402 -405 310 -65 578 68 644 320 26 102 35 95 -124 95 l-138
0 -7 -40 c-12 -78 -97 -144 -199 -156 -122 -14 -233 53 -276 169 -57 155 -48
330 24 452 89 153 296 178 405 48 17 -21 36 -58 43 -81 l12 -44 135 7 c74 4
137 9 138 10 8 8 -20 110 -44 161 -89 189 -325 294 -569 253z"/>
<path d="M5333 1509 c-218 -36 -383 -199 -438 -431 -19 -83 -19 -264 1 -348
50 -214 205 -373 403 -415 220 -46 458 10 577 137 42 45 88 128 96 172 3 20
-24 27 -198 50 l-51 6 -27 -43 c-63 -99 -202 -141 -335 -101 -98 29 -181 137
-197 258 l-7 46 418 0 418 0 -6 123 c-9 187 -54 306 -156 407 -119 119 -306
171 -498 139z m222 -233 c46 -20 94 -64 116 -109 21 -41 51 -129 45 -134 -2
-2 -127 -2 -278 -1 l-276 3 19 60 c49 160 223 244 374 181z"/>
<path d="M6737 1510 c-76 -13 -137 -49 -204 -118 l-63 -64 0 86 0 86 -140 0
-140 0 0 -750 0 -750 145 0 145 0 0 236 0 237 54 -57 c70 -72 141 -106 241
-113 254 -19 456 136 522 403 23 95 23 313 0 408 -47 190 -164 326 -325 376
-72 22 -173 31 -235 20z m118 -249 c61 -28 121 -102 146 -180 77 -250 -14
-503 -195 -541 -125 -26 -233 33 -290 160 -90 199 -37 467 108 551 43 24 62
29 121 29 46 0 84 -7 110 -19z"/>
<path d="M7875 1513 c-129 -18 -225 -63 -295 -140 -112 -122 -113 -312 -3
-425 53 -55 151 -94 329 -133 234 -51 274 -75 274 -160 0 -85 -73 -134 -199
-135 -40 0 -92 6 -115 12 -50 15 -112 75 -121 118 -6 27 -10 31 -33 26 -15 -3
-75 -8 -134 -11 -122 -8 -120 -6 -91 -91 33 -99 95 -167 195 -216 153 -75 415
-77 574 -4 67 31 156 114 184 171 49 100 44 236 -12 319 -56 85 -138 123 -382
176 -77 17 -158 39 -181 49 -45 20 -85 72 -85 111 0 37 32 79 78 101 36 18 56
21 125 17 107 -6 155 -30 188 -93 l24 -46 55 5 c30 3 88 8 127 12 73 6 73 6
66 33 -33 138 -107 221 -239 271 -92 34 -224 47 -329 33z"/>
</g>
</svg>
